<?xml version="1.0" encoding="UTF-8" standalone="no"?>
<svg
   xmlns:dc="http://purl.org/dc/elements/1.1/"
   xmlns:cc="http://creativecommons.org/ns#"
   xmlns:rdf="http://www.w3.org/1999/02/22-rdf-syntax-ns#"
   xmlns:svg="http://www.w3.org/2000/svg"
   xmlns="http://www.w3.org/2000/svg"
   xmlns:sodipodi="http://sodipodi.sourceforge.net/DTD/sodipodi-0.dtd"
   xmlns:inkscape="http://www.inkscape.org/namespaces/inkscape"
   width="254.952"
   height="255.303"
   viewBox="0 0 254.95201 255.30299"
   enable-background="new 0 0 262.619 263.444"
   id="svg2"
   version="1.1"
   inkscape:version="0.48.4 r9939"
   sodipodi:docname="blue_reverse.svg">
  <metadata
     id="metadata14">
    <rdf:RDF>
      <cc:Work
         rdf:about="">
        <dc:format>image/svg+xml</dc:format>
        <dc:type
           rdf:resource="http://purl.org/dc/dcmitype/StillImage" />
        <dc:title></dc:title>
      </cc:Work>
    </rdf:RDF>
  </metadata>
  <defs
     id="defs12" />
  <sodipodi:namedview
     pagecolor="#ffffff"
     bordercolor="#666666"
     borderopacity="1"
     objecttolerance="10"
     gridtolerance="10"
     guidetolerance="10"
     inkscape:pageopacity="0"
     inkscape:pageshadow="2"
     inkscape:window-width="1619"
     inkscape:window-height="1030"
     id="namedview10"
     showgrid="false"
     inkscape:zoom="2.388264"
     inkscape:cx="58.368508"
     inkscape:cy="111.9825"
     inkscape:window-x="59"
     inkscape:window-y="867"
     inkscape:window-maximized="1"
     inkscape:current-layer="svg2" />
  <g
     id="g4"
     transform="matrix(-1,0,0,1,254.952,0)">
    <path
       d="m 94.315,254.971 c 8.456,-14.99 16.881,-29.997 25.423,-44.937 0.826,-1.445 2.206,-3.154 3.66,-3.565 10.737,-3.032 15.925,-11.528 21.018,-20.357 5.313,-9.209 10.556,-18.507 16.589,-27.243 10.028,-14.522 8.499,-29.029 0.64,-43.431 -8.15,-14.934 -20.887,-22.879 -38.236,-22.761 -8.869,0.06 -17.738,0.01 -26.607,0.01 -9.633,0 -19.266,0 -28.723,0 C 66.654,76.5 67.052,76.041 81.421,76.04 c 44.641,-0.004 89.282,0.007 133.923,-0.021 3.047,-0.002 6.093,-0.281 9.14,-0.431 -2.014,-2.72 -4.241,-3.77 -6.584,-4.266 C 174.578,62.151 131.239,53.055 87.909,43.922 62.945,38.661 33.064,58.689 27.13,85.859 c 5.3,-5.067 9.795,-9.364 15.64,-14.952 0,8.692 -0.005,15.408 10e-4,22.123 0.014,17.636 6.416,24.121 23.875,24.142 16.851,0.021 33.708,-0.247 50.552,0.095 14.467,0.294 22.909,9.914 21.318,23.435 -1.477,12.548 -12.426,19.918 -26.026,17.044 -4.752,-1.004 -9.256,-3.186 -15.424,-5.381 9.174,20.937 1.953,38.099 -8.283,55.114 -9.333,15.514 -17.661,31.632 -26.417,47.493 h -10.65 c 11.421,-21.14 23.19,-42.101 34.146,-63.479 11.462,-22.365 2.594,-48.672 -20.04,-61.726 -21.208,-12.231 -44.43,-6.472 -58.885,14.59 -2.287,3.332 -4.624,6.629 -6.938,9.942 V 12.696 c 0,-3.421 1.36,-6.521 3.561,-8.804 -2.396,2.309 -3.892,5.545 -3.892,9.135 v 229.58 c 0,7.011 5.685,12.696 12.696,12.696 0,0 236.053,-1.496 238.362,-3.892 -2.283,2.201 -5.382,3.561 -8.804,3.561 H 94.315 z"
       transform="translate(0.332,0)"
       id="path6"
       inkscape:connector-curvature="0"
       style="fill:#ffffff" />
    <path
       d="M 241.923,0 H 12.696 C 9.106,0 5.87,1.496 3.561,3.892 1.36,6.175 0,9.274 0,12.696 v 141.603 c 2.314,-3.313 4.651,-6.61 6.938,-9.942 14.454,-21.062 37.677,-26.821 58.885,-14.59 22.635,13.054 31.502,39.361 20.04,61.726 -10.956,21.378 -22.725,42.34 -34.146,63.479 h 10.65 c 8.756,-15.861 17.085,-31.979 26.417,-47.493 10.235,-17.015 17.457,-34.177 8.283,-55.114 6.167,2.196 10.671,4.377 15.424,5.381 13.6,2.873 24.549,-4.496 26.026,-17.044 1.591,-13.52 -6.851,-23.141 -21.318,-23.435 -16.844,-0.342 -33.701,-0.074 -50.552,-0.095 C 49.188,117.151 42.787,110.666 42.772,93.03 42.767,86.314 42.771,79.599 42.771,70.907 36.926,76.495 32.431,80.792 27.131,85.859 33.065,58.69 62.946,38.661 87.909,43.922 c 43.331,9.133 86.669,18.228 129.991,27.4 2.344,0.496 4.57,1.546 6.584,4.266 -3.047,0.15 -6.093,0.429 -9.14,0.431 -44.641,0.028 -89.282,0.017 -133.923,0.021 -14.369,10e-4 -14.767,0.46 -13.342,16.648 9.458,0 19.091,0 28.723,0 8.869,0 17.739,0.051 26.607,-0.01 17.349,-0.118 30.086,7.827 38.236,22.761 7.859,14.401 9.388,28.909 -0.64,43.431 -6.032,8.735 -11.275,18.033 -16.589,27.243 -5.094,8.829 -10.282,17.325 -21.018,20.357 -1.455,0.411 -2.834,2.12 -3.66,3.565 -8.542,14.94 -16.967,29.948 -25.423,44.937 h 147.609 c 3.421,0 6.521,-1.36 8.804,-3.561 2.396,-2.309 3.892,-5.545 3.892,-9.135 V 12.696 C 254.619,5.684 248.935,0 241.923,0 z"
       transform="translate(0.332,0)"
       id="path8"
       inkscape:connector-curvature="0"
       style="fill:#26aae0" />
  </g>
</svg>
